<svg width="224" height="96" viewBox="0 0 224 96" fill="none" xmlns="http://www.w3.org/2000/svg">
<path d="M16 16H32V32H16V16ZM32 16H48V32H32V16ZM48 32H64V48H48V32ZM16 48H32V64H16V48ZM32 48H48V64H32V48ZM48 48H64V64H48V48ZM0 64H16V80H0V64ZM48 64H64V80H48V64ZM16 80H32V96H16V80ZM32 80H48V96H32V80ZM48 80H64V96H48V80ZM80 32H96V48H80V32ZM112 32H128V48H112V32ZM80 48H96V64H80V48ZM96 48H112V64H96V48ZM128 48H144V64H128V48ZM80 64H96V80H80V64ZM128 64H144V80H128V64ZM80 80H96V96H80V80ZM128 80H144V96H128V80ZM208 0H224V16H208V0ZM208 16H224V32H208V16ZM208 32H224V48H208V32ZM176 48H192V64H176V48ZM192 48H208V64H192V48ZM208 48H224V64H208V48ZM160 64H176V80H160V64ZM208 64H224V80H208V64ZM176 80H192V96H176V80ZM192 80H208V96H192V80ZM208 80H224V96H208V80Z" fill="white"/>
</svg>
