<svg width="512" height="512" viewBox="0 0 512 512" fill="none" xmlns="http://www.w3.org/2000/svg">
<g clip-path="url(#clip0_345_20)">
<rect x="16" y="16" width="480" height="480" rx="112" fill="#FFFF81" stroke="#808000" stroke-width="32"/>
<path d="M256 384C256 384 128 51.2 128 256C128 460.8 256 128 256 128" stroke="#303000" stroke-width="32"/>
<circle cx="256" cy="384" r="16" fill="#303000"/>
<path d="M272 217C272 217 288 240.651 288 256C288 271.349 272 295 272 295" stroke="#303000" stroke-width="32"/>
<path d="M368 196C368 196 384 232.386 384 256C384 279.614 368 316 368 316" stroke="#303000" stroke-width="32"/>
<path d="M212 230C212 230 204 244.648 204 256C204 267.352 212 282 212 282" stroke="#303000" stroke-width="32"/>
<circle cx="256" cy="128" r="16" fill="#303000"/>
<circle cx="272" cy="295" r="16" fill="#303000"/>
<circle cx="272" cy="217" r="16" fill="#303000"/>
<path d="M320 203C320 203 336 235.141 336 256C336 276.859 320 309 320 309" stroke="#303000" stroke-width="32"/>
<circle cx="320" cy="309" r="16" fill="#303000"/>
<circle cx="320" cy="203" r="16" fill="#303000"/>
<circle cx="368" cy="316" r="16" fill="#303000"/>
<circle cx="368" cy="196" r="16" fill="#303000"/>
<rect x="138" y="205" width="46" height="101" fill="#303000"/>
</g>
<defs>
<clipPath id="clip0_345_20">
<rect width="512" height="512" fill="white"/>
</clipPath>
</defs>
</svg>
