<svg width="432" height="80" viewBox="0 0 432 80" fill="none" xmlns="http://www.w3.org/2000/svg">
<path d="M0 16H16V32H0V16ZM64 16H80V32H64V16ZM0 32H16V48H0V32ZM32 32H48V48H32V32ZM64 32H80V48H64V32ZM0 48H16V64H0V48ZM32 48H48V64H32V48ZM64 48H80V64H64V48ZM16 64H32V80H16V64ZM48 64H64V80H48V64ZM112 0H128V16H112V0ZM128 0H144V16H128V0ZM144 16H160V32H144V16ZM112 32H128V48H112V32ZM128 32H144V48H128V32ZM144 32H160V48H144V32ZM96 48H112V64H96V48ZM144 48H160V64H144V48ZM112 64H128V80H112V64ZM128 64H144V80H128V64ZM144 64H160V80H144V64ZM176 16H192V32H176V16ZM208 16H224V32H208V16ZM176 32H192V48H176V32ZM208 32H224V48H208V32ZM176 48H192V64H176V48ZM208 48H224V64H208V48ZM192 64H208V80H192V64ZM240 0H256V16H240V0ZM240 32H256V48H240V32ZM256 32H272V48H256V32ZM240 48H256V64H240V48ZM240 64H256V80H240V64ZM320 0H336V16H320V0ZM304 16H320V32H304V16ZM336 16H352V32H336V16ZM304 32H320V48H304V32ZM288 48H304V64H288V48ZM304 48H320V64H304V48ZM320 48H336V64H320V48ZM304 64H320V80H304V64ZM368 16H384V32H368V16ZM416 16H432V32H416V16ZM384 32H400V48H384V32ZM400 32H416V48H400V32ZM416 32H432V48H416V32ZM416 48H432V64H416V48ZM384 64H400V80H384V64ZM400 64H416V80H400V64Z" fill="white"/>
</svg>
